<svg width="50" height="50" viewBox="0 0 50 50" fill="none" xmlns="http://www.w3.org/2000/svg">
<path d="M0 25C0 38.8071 11.1929 50 25 50C38.8071 50 50 38.8071 50 25C50 11.1929 38.8071 0 25 0C11.1929 0 0 11.1929 0 25ZM46.5 25C46.5 36.8741 36.8741 46.5 25 46.5C13.1259 46.5 3.5 36.8741 3.5 25C3.5 13.1259 13.1259 3.5 25 3.5C36.8741 3.5 46.5 13.1259 46.5 25Z" fill="url(#paint0_angular_1859_27288)"/>
<path d="M27.5817 20.459L25.8192 19.4346C25.5276 19.2653 25.0507 19.2653 24.7591 19.4346L22.9966 20.459C22.6164 20.6799 22.6157 21.043 22.9947 21.2658L24.7598 22.3041C25.0507 22.4754 25.5276 22.4754 25.8186 22.3041L27.583 21.2658C27.9619 21.043 27.9613 20.6799 27.581 20.459H27.5817Z" fill="#8282F8"/>
<path d="M34.4532 19.1888L25.9398 14.293C25.6482 14.125 25.1707 14.125 24.8791 14.293L16.365 19.1888C16.0727 19.3568 15.834 19.7702 15.834 20.1068V29.8939C15.834 30.2305 16.0727 30.6438 16.365 30.8118L24.8784 35.7077C25.1701 35.8757 25.6475 35.8757 25.9392 35.7077L34.4526 30.8118C34.7449 30.6438 34.9836 30.2305 34.9836 29.8939V20.1068C34.9836 19.7702 34.7449 19.3568 34.4526 19.1888H34.4532ZM30.6651 21.4599L25.8195 24.3109C25.5285 24.4822 25.0517 24.4822 24.7607 24.3109L21.6868 22.5028C21.3045 22.2779 20.9924 22.4572 20.9924 22.9003V28.3549C20.9924 28.7901 20.6776 28.9799 20.2927 28.7762L19.7709 28.5004C19.4713 28.3417 19.226 27.935 19.226 27.5957V21.6669C19.226 21.3302 19.4641 20.9162 19.755 20.7469L24.76 17.8371C25.0517 17.6678 25.5285 17.6678 25.8201 17.8371L30.6631 20.6524C31.0434 20.8733 31.044 21.2363 30.6651 21.4592V21.4599Z" fill="#8282F8"/>
<path d="M27.2427 20.4473L25.4234 19.3899C25.1223 19.2151 24.6301 19.2151 24.3291 19.3899L22.5098 20.4473C22.1172 20.6753 22.1165 21.0501 22.5077 21.2802L24.3298 22.352C24.6301 22.5288 25.1223 22.5288 25.4227 22.352L27.2441 21.2802C27.6353 21.0501 27.6346 20.6753 27.242 20.4473H27.2427Z" fill="#8282F8"/>
<path d="M34.3371 19.137L25.5491 14.0832C25.248 13.9098 24.7551 13.9098 24.4541 14.0832L15.6654 19.137C15.3636 19.3104 15.1172 19.7371 15.1172 20.0845V30.1874C15.1172 30.5349 15.3636 30.9616 15.6654 31.135L24.4534 36.1888C24.7545 36.3622 25.2474 36.3622 25.5484 36.1888L34.3364 31.135C34.6382 30.9616 34.8846 30.5349 34.8846 30.1874V20.0845C34.8846 19.7371 34.6382 19.3104 34.3364 19.137H34.3371ZM30.4268 21.4813L25.4248 24.4243C25.1245 24.6011 24.6323 24.6011 24.3319 24.4243L21.1588 22.5579C20.7642 22.3258 20.442 22.5108 20.442 22.9682V28.5988C20.442 29.048 20.1171 29.244 19.7198 29.0337L19.1811 28.749C18.8719 28.5852 18.6186 28.1653 18.6186 27.8151V21.695C18.6186 21.3475 18.8644 20.9201 19.1647 20.7454L24.3312 17.7416C24.6323 17.5668 25.1245 17.5668 25.4255 17.7416L30.4247 20.6477C30.8173 20.8758 30.818 21.2505 30.4268 21.4806V21.4813Z" fill="#8282F8"/>
<defs>
<radialGradient id="paint0_angular_1859_27288" cx="0" cy="0" r="1" gradientUnits="userSpaceOnUse" gradientTransform="translate(25 25) rotate(90) scale(25)">
<stop stop-color="#8282F8"/>
<stop offset="1" stop-color="#8282F8" stop-opacity="0"/>
</radialGradient>
</defs>
</svg>
