<svg xmlns="http://www.w3.org/2000/svg" width="97" height="21" viewBox="0 0 97 21" fill="none">
  <path d="M31.2833 15.2052L32.405 12.8658C33.1165 13.2027 33.8447 13.3701 34.4808 13.3701C36.201 13.3701 36.9689 12.5477 36.9689 10.6582V2.69003H40.0367V10.7524C40.0367 14.0815 38.0717 16.0652 34.9475 16.0652C33.5622 16.0652 32.3276 15.7848 31.2812 15.2052H31.2833Z" fill="white"/>
  <path d="M42.5269 11.6521V6.5444H45.4649V11.5957C45.4649 12.8114 46.101 13.5605 47.1117 13.5605C48.2334 13.5605 48.9825 12.7005 48.9825 11.4471V6.54649H51.9205V15.7869H49.2818C49.2818 15.337 49.3006 14.8516 49.3759 14.1213H49.3194C48.834 15.224 47.6914 15.992 46.2893 15.992C43.8954 15.992 42.5289 14.4017 42.5289 11.6521H42.5269Z" fill="white"/>
  <path d="M54.4819 12.7737V2.69003H57.42V12.418C57.42 13.1859 57.6815 13.5772 58.3554 13.5772C58.6546 13.5772 58.9162 13.5395 59.2154 13.4266L59.7009 15.54C59.1212 15.858 58.2047 16.0066 57.4179 16.0066C55.4718 16.0066 54.4799 14.9038 54.4799 12.7695L54.4819 12.7737Z" fill="white"/>
  <path d="M67.6151 6.5444H70.664L66.1922 17.6387C65.4074 19.5659 64.359 20.3129 62.618 20.3129C61.9065 20.3129 61.308 20.1811 60.5045 19.8275L61.1406 17.5069C61.6449 17.7496 62.0383 17.8438 62.4318 17.8438C63.0491 17.8438 63.4613 17.5446 63.8359 16.6281L64.041 16.1238L59.9813 6.54649H63.1809L64.7525 10.7921C65.0517 11.5957 65.2379 12.1585 65.3886 12.757H65.4263C65.5937 12.215 65.8008 11.5601 66.0813 10.811L67.6151 6.54649V6.5444Z" fill="white"/>
  <path d="M74.7069 14.2887H74.6504C74.6881 14.9436 74.6881 15.3746 74.6881 15.7848H72.0493V2.69003H75.0062V4.9541C75.0062 6.11333 74.9497 7.08633 74.6881 8.22883H74.7258C75.3242 7.16166 76.5024 6.33932 78.0174 6.33932C80.3925 6.33932 82.2277 8.1535 82.2277 11.1102C82.2277 14.0668 80.3381 15.9919 77.85 15.9919C76.3915 15.9919 75.2489 15.2993 74.7069 14.2887ZM79.3085 11.1834C79.3085 9.76262 78.4297 8.77078 77.1197 8.77078C75.8097 8.77078 74.9308 9.74378 74.9308 11.1457C74.9308 12.5477 75.7721 13.5584 77.082 13.5584C78.392 13.5584 79.3085 12.6042 79.3085 11.1834Z" fill="white"/>
  <path d="M83.95 4.03755C83.95 3.10221 84.6614 2.42844 85.6701 2.42844C86.6787 2.42844 87.3902 3.10221 87.3902 4.03755C87.3902 4.97289 86.6787 5.62784 85.6701 5.62784C84.6614 5.62784 83.95 4.97289 83.95 4.03755ZM84.1927 15.7868V6.54644H87.1307V15.7868H84.1927Z" fill="white"/>
  <path d="M96.2586 15.4312C95.5094 15.8057 94.7435 15.9731 93.8081 15.9731C91.6569 15.9731 90.5332 14.7574 90.5332 12.3992V8.8252H88.9617V6.5423H90.5332V4.24057L93.4524 3.92252V6.5423H95.7543V8.8252H93.4524V12.305C93.4524 13.1085 93.7893 13.5207 94.5196 13.5207C94.8377 13.5207 95.2499 13.4266 95.5868 13.278L96.2607 15.4291L96.2586 15.4312Z" fill="white"/>
  <path d="M25.5748 0.3125H18.6503C17.6752 0.3125 16.8235 0.967447 16.5703 1.90906L13.1866 14.4619C12.9271 15.393 12.0796 16.0375 11.1128 16.0375H22.4944C23.4696 16.0375 24.3213 15.3825 24.5745 14.4409L27.6548 3.02226C28.021 1.65378 26.9914 0.3125 25.5748 0.3125Z" fill="#3268FC"/>
  <path d="M12.3162 14.4426C12.3162 14.4426 12.3162 14.4489 12.3183 14.451L11.6235 11.8563C11.6235 11.8563 11.6235 11.8626 11.6235 11.8647L12.3141 14.4426H12.3162Z" fill="#F2F9F9"/>
  <path d="M12.3183 14.4509C12.3183 14.4509 12.3183 14.4446 12.3162 14.4425L11.6256 11.8646C11.6256 11.8646 11.6256 11.8583 11.6256 11.8562L11.5524 11.5863L11.3285 10.7514C11.0753 9.80979 10.2236 9.15485 9.24841 9.15485H2.324C0.907305 9.15485 -0.122255 10.4982 0.24395 11.8646L0.934509 14.4425C1.18771 15.3842 2.0394 16.0391 3.01455 16.0391H14.3983C13.4273 16.0391 12.5756 15.3883 12.3203 14.4509H12.3183Z" fill="#39E8FF"/>
</svg>
